<?xml version="1.0" standalone="no"?>
<svg width="800" height="800" title="polygons" version="1.1" viewBox="0 0 800 800" xmlns="http://www.w3.org/2000/svg" class="svg-paper"><!----> <g><desc>pwidth:800;pheight:800;pcolor:;seed:10};sf:i+i*7;rf:10*sin(i/2);xf:400;yf:400;qt:27;sd:6;rn:0.6;minrd:126;maxrd:50;mina:163;maxa:360;cv:curveCardinalClosed;rd:false</desc> <path stroke="#000000" stroke-width="0.4mm" fill="none" d="M314.07,307.85C303.43,317.77,273.96,414.17,277.23,428.34C280.50,442.52,349.25,516.24,363.16,520.49C377.07,524.75,475.29,502.07,485.93,492.15C496.57,482.23,526.04,385.83,522.77,371.66C519.50,357.48,450.75,283.76,436.84,279.51C422.93,275.25,324.71,297.93,314.07,307.85"/><path stroke="#000000" stroke-width="0.4mm" fill="none" d="M300.74,309.98C290.35,321.44,267.68,426.22,272.41,440.95C277.14,455.68,356.55,527.70,371.67,530.97C386.79,534.24,488.86,501.48,499.26,490.02C509.65,478.56,532.32,373.78,527.59,359.05C522.86,344.32,443.45,272.30,428.33,269.03C413.21,265.76,311.14,298.52,300.74,309.98"/><path stroke="#000000" stroke-width="0.4mm" fill="none" d="M289.00,311.44C278.78,324.25,261.82,436.58,267.80,451.85C273.79,467.11,362.59,537.96,378.80,540.41C395.02,542.86,500.77,501.38,511.00,488.56C521.22,475.75,538.18,363.42,532.20,348.15C526.21,332.89,437.41,262.04,421.20,259.59C404.98,257.14,299.23,298.62,289.00,311.44"/><path stroke="#000000" stroke-width="0.4mm" fill="none" d="M280.24,309.68C269.81,323.50,255.14,442.60,261.90,458.55C268.66,474.50,364.46,546.76,381.65,548.87C398.84,550.99,509.33,504.15,519.76,490.32C530.19,476.50,544.86,357.40,538.10,341.45C531.34,325.50,435.54,253.24,418.35,251.13C401.16,249.01,290.67,295.85,280.24,309.68"/><path stroke="#000000" stroke-width="0.4mm" fill="none" d="M275.34,302.93C264.13,317.32,246.74,442.52,253.60,459.43C260.46,476.33,360.19,553.99,378.26,556.50C396.34,559.01,513.45,511.47,524.66,497.07C535.87,482.68,553.26,357.48,546.40,340.57C539.54,323.67,439.81,246.01,421.74,243.50C403.66,240.99,286.55,288.53,275.34,302.93"/><path stroke="#000000" stroke-width="0.4mm" fill="none" d="M274.75,291.06C262.17,305.52,236.79,435.88,243.03,454.00C249.27,472.13,349.47,559.28,368.28,562.94C387.10,566.60,512.67,523.40,525.25,508.94C537.83,494.48,563.21,364.12,556.97,346.00C550.73,327.87,450.53,240.72,431.72,237.06C412.90,233.40,287.33,276.60,274.75,291.06"/><path stroke="#000000" stroke-width="0.4mm" fill="none" d="M278.23,275.71C263.88,289.77,226.47,423.85,231.47,443.30C236.48,462.76,333.89,562.20,353.24,567.60C372.59,573.00,507.41,538.35,521.77,524.29C536.12,510.23,573.53,376.15,568.53,356.70C563.52,337.24,466.11,237.80,446.76,232.40C427.41,227.00,292.59,261.65,278.23,275.71"/><path stroke="#000000" stroke-width="0.4mm" fill="none" d="M284.25,259.55C268.04,272.91,217.03,409.29,220.49,430.01C223.96,450.74,316.56,563.10,336.24,570.47C355.92,577.83,499.53,553.82,515.75,540.45C531.96,527.09,582.97,390.71,579.51,369.99C576.04,349.26,483.44,236.90,463.76,229.53C444.08,222.17,300.47,246.18,284.25,259.55"/><path stroke="#000000" stroke-width="0.4mm" fill="none" d="M289.85,245.19C271.97,257.91,208.78,396.15,210.85,417.99C212.93,439.83,301.05,563.68,321.00,572.80C340.96,581.92,492.27,567.53,510.15,554.81C528.03,542.09,591.22,403.85,589.15,382.01C587.07,360.17,498.95,236.32,479.00,227.20C459.04,218.08,307.73,232.47,289.85,245.19"/><path stroke="#000000" stroke-width="0.4mm" fill="none" d="M291.51,234.37C272.39,246.89,201.03,388.31,202.31,411.14C203.60,433.96,290.39,566.47,310.80,576.77C331.21,587.07,489.36,578.16,508.49,565.63C527.61,553.11,598.97,411.69,597.69,388.86C596.40,366.04,509.61,233.53,489.20,223.23C468.79,212.93,310.64,221.84,291.51,234.37"/><path stroke="#000000" stroke-width="0.4mm" fill="none" d="M286.57,228.04C266.71,241.14,192.95,388.51,194.36,412.26C195.78,436.00,286.53,573.57,307.80,584.21C329.07,594.86,493.58,585.06,513.43,571.96C533.29,558.86,607.05,411.49,605.64,387.74C604.22,364.00,513.47,226.43,492.20,215.79C470.93,205.14,306.42,214.94,286.57,228.04"/><path stroke="#000000" stroke-width="0.4mm" fill="none" d="M274.38,226.75C254.38,241.25,184.59,397.59,187.15,422.16C189.71,446.74,290.20,585.34,312.77,595.41C335.33,605.49,505.61,587.76,525.62,573.25C545.62,558.75,615.41,402.41,612.85,377.84C610.29,353.26,509.80,214.66,487.23,204.59C464.67,194.51,294.39,212.24,274.38,226.75"/><path stroke="#000000" stroke-width="0.4mm" fill="none" d="M256.69,230.45C237.11,247.00,176.97,414.11,181.51,439.34C186.05,464.56,300.70,600.20,324.82,608.88C348.94,617.56,523.73,586.10,543.31,569.55C562.89,553.00,623.03,385.89,618.49,360.66C613.95,335.44,499.30,199.80,475.18,191.12C451.06,182.44,276.27,213.90,256.69,230.45"/><path stroke="#000000" stroke-width="0.4mm" fill="none" d="M236.94,237.80C218.21,256.62,171.05,434.48,177.99,460.11C184.94,485.75,315.39,615.51,341.06,622.32C366.73,629.13,544.33,581.03,563.06,562.20C581.79,543.38,628.95,365.52,622.01,339.89C615.06,314.25,484.61,184.49,458.94,177.68C433.27,170.87,255.67,218.97,236.94,237.80"/><path stroke="#000000" stroke-width="0.4mm" fill="none" d="M218.84,245.65C201.01,266.57,166.54,453.83,175.75,479.72C184.95,505.61,329.89,629.09,356.91,634.07C383.94,639.04,563.34,575.27,581.16,554.35C598.99,533.43,633.46,346.17,624.25,320.28C615.05,294.39,470.11,170.91,443.09,165.93C416.06,160.96,236.66,224.73,218.84,245.65"/><path stroke="#000000" stroke-width="0.4mm" fill="none" d="M205.15,249.84C187.81,272.34,161.71,467.40,172.53,493.66C183.34,519.93,339.23,640.06,367.38,643.83C395.53,647.59,577.51,572.66,594.85,550.16C612.19,527.66,638.29,332.60,627.47,306.34C616.66,280.07,460.77,159.94,432.62,156.17C404.47,152.41,222.49,227.34,205.15,249.84"/><path stroke="#000000" stroke-width="0.4mm" fill="none" d="M197.43,246.76C179.74,270.15,154.60,471.79,166.01,498.81C177.42,525.83,339.47,648.42,368.58,652.05C397.68,655.68,584.87,576.63,602.57,553.24C620.26,529.85,645.40,328.21,633.99,301.19C622.58,274.17,460.53,151.58,431.42,147.95C402.32,144.32,215.13,223.37,197.43,246.76"/><path stroke="#000000" stroke-width="0.4mm" fill="none" d="M196.43,235.06C177.39,258.57,144.54,465.58,155.38,493.83C166.21,522.07,329.07,654.02,358.95,658.76C388.83,663.50,584.52,588.44,603.57,564.94C622.61,541.43,655.46,334.42,644.62,306.17C633.79,277.93,470.93,145.98,441.05,141.24C411.17,136.50,215.48,211.56,196.43,235.06"/><path stroke="#000000" stroke-width="0.4mm" fill="none" d="M202.15,216.28C180.93,239.12,132.79,449.69,141.97,479.49C151.14,509.28,309.43,656.26,339.82,663.21C370.21,670.16,576.64,606.57,597.85,583.72C619.07,560.88,667.21,350.31,658.03,320.51C648.86,290.72,490.57,143.74,460.18,136.79C429.79,129.84,223.36,193.43,202.15,216.28"/><path stroke="#000000" stroke-width="0.4mm" fill="none" d="M213.09,194.21C189.33,215.80,121.52,427.61,128.33,458.98C135.14,490.35,284.67,654.98,315.24,664.76C345.81,674.55,563.15,627.37,586.91,605.79C610.67,584.20,678.48,372.39,671.67,341.02C664.86,309.65,515.33,145.02,484.76,135.24C454.19,125.45,236.85,172.63,213.09,194.21"/><path stroke="#000000" stroke-width="0.4mm" fill="none" d="M225.66,173.28C199.48,193.41,112.14,404.89,116.49,437.63C120.83,470.36,260.30,651.74,290.83,664.34C321.35,676.95,548.16,646.85,574.34,626.72C600.52,606.59,687.86,395.11,683.51,362.37C679.17,329.64,539.70,148.26,509.17,135.66C478.65,123.05,251.84,153.15,225.66,173.28"/><path stroke="#000000" stroke-width="0.4mm" fill="none" d="M234.73,156.85C206.66,175.93,104.30,387.69,106.79,421.55C109.28,455.40,241.49,649.93,272.06,664.70C302.62,679.47,537.19,662.24,565.27,643.15C593.34,624.07,695.70,412.31,693.21,378.45C690.72,344.60,558.51,150.07,527.94,135.30C497.38,120.53,262.81,137.76,234.73,156.85"/><path stroke="#000000" stroke-width="0.4mm" fill="none" d="M235.52,146.72C206.27,165.71,96.59,380.98,98.41,415.81C100.24,450.63,231.82,653.25,262.90,669.08C293.97,684.92,535.24,672.27,564.48,653.28C593.73,634.29,703.41,419.02,701.59,384.19C699.76,349.37,568.18,146.75,537.10,130.92C506.03,115.08,264.76,127.73,235.52,146.72"/><path stroke="#000000" stroke-width="0.4mm" fill="none" d="M225.55,143.74C195.96,163.89,88.20,387.25,90.85,422.95C93.50,458.65,233.06,663.65,265.30,679.21C297.54,694.76,544.86,676.40,574.45,656.26C604.04,636.11,711.80,412.75,709.15,377.05C706.50,341.35,566.94,136.35,534.70,120.79C502.46,105.24,255.14,123.60,225.55,143.74"/><path stroke="#000000" stroke-width="0.4mm" fill="none" d="M205.82,148.17C176.74,170.59,79.94,405.85,84.82,442.25C89.70,478.64,245.04,680.11,279.00,694.08C312.95,708.05,565.10,674.25,594.18,651.83C623.26,629.41,720.06,394.15,715.18,357.75C710.30,321.36,554.96,119.89,521.00,105.92C487.05,91.95,234.90,125.75,205.82,148.17"/><path stroke="#000000" stroke-width="0.4mm" fill="none" d="M180.44,159.02C152.62,184.37,73.49,432.88,81.53,469.65C89.57,506.43,265.22,699.21,301.08,710.63C336.95,722.05,591.73,666.33,619.56,640.98C647.38,615.63,726.51,367.12,718.47,330.35C710.43,293.57,534.78,100.79,498.92,89.37C463.05,77.95,208.27,133.67,180.44,159.02"/><path stroke="#000000" stroke-width="0.4mm" fill="none" d="M154.93,173.07C128.72,201.37,69.53,461.93,80.94,498.78C92.35,535.62,288.40,717.16,326.01,725.70C363.62,734.25,618.87,655.22,645.07,626.93C671.28,598.63,730.47,338.07,719.06,301.22C707.65,264.38,511.60,82.84,473.99,74.30C436.38,65.75,181.13,144.78,154.93,173.07"/></g></svg>